<svg xmlns="http://www.w3.org/2000/svg" xmlns:xlink="http://www.w3.org/1999/xlink" viewBox="0,0,256,256" width="32px" height="32px"><g fill="#accbe1" fill-rule="nonzero" stroke="none" stroke-width="1" stroke-linecap="butt" stroke-linejoin="miter" stroke-miterlimit="10" stroke-dasharray="" stroke-dashoffset="0" font-family="none" font-weight="none" font-size="none" text-anchor="none" style="mix-blend-mode: normal"><g transform="scale(8,8)"><path d="M16.94922,2.99023c-0.38854,0.01597 -0.73259,0.25571 -0.88212,0.61468c-0.14953,0.35896 -0.07743,0.77206 0.18486,1.05915l4.94336,5.56055c-0.67719,-0.13695 -1.37838,-0.21453 -2.09961,-0.2207c-0.03182,-0.00283 -0.06376,-0.00413 -0.0957,-0.00391h-12c-0.36064,-0.0051 -0.69608,0.18438 -0.87789,0.49587c-0.18181,0.3115 -0.18181,0.69676 0,1.00825c0.18181,0.3115 0.51725,0.50097 0.87789,0.49587h5.72461c-0.03248,0.02362 -0.06746,0.04438 -0.09961,0.06836c-0.10619,0.04412 -0.20398,0.10623 -0.28906,0.18359l-9,8c-0.41313,0.36675 -0.45074,0.99897 -0.08398,1.41211c0.36675,0.41313 0.99897,0.45074 1.41211,0.08398l4.43359,-3.94141c-0.05787,0.39141 -0.09766,0.78781 -0.09766,1.19336c0,4.967 4.481,9 10,9c5.519,0 10,-4.033 10,-9c0,-2.59104 -1.22578,-4.92164 -3.17578,-6.56445c-0.02328,-0.03476 -0.04872,-0.06803 -0.07617,-0.09961l-8,-9c-0.19954,-0.23114 -0.49374,-0.35846 -0.79883,-0.3457zM19,12c3.512,0.002 6.966,2.174 7,6c0.03,3.463 -2.875,6.002 -7,6c-3.983,-0.002 -6.981,-2.467 -7,-6c-0.02,-3.705 3.013,-6.002 7,-6zM18.83203,14c-2.20914,0 -4,1.567 -4,3.5c0,1.933 1.79086,3.5 4,3.5c2.20914,0 4,-1.567 4,-3.5c0,-1.933 -1.79086,-3.5 -4,-3.5z"></path></g></g></svg>